<svg width="790.85551" height="705.6377" xmlns="http://www.w3.org/2000/svg" data-name="Layer 1">

 <g>
  <title>Layer 1</title>
  <path id="svg_1" fill="#e6e6e6" d="m170.96427,217.27539a8,8 0 0 0 0,16l100.56006,0l0,-3.49a14.97671,14.97671 0 0 1 6.73974,-12.51l-107.2998,0z"/>
  <path id="svg_2" fill="#e6e6e6" d="m262.46909,199.27539l-34,0a8,8 0 1 1 0,-16l34,0a8,8 0 0 1 0,16z"/>
  <path id="svg_3" fill="#e6e6e6" d="m186.2136,142.27539l-132,0a8,8 0 1 1 0,-16l132,0a8,8 0 0 1 0,16z"/>
  <path id="svg_4" fill="#e6e6e6" d="m128.7136,108.27539l-17,0a8,8 0 1 1 0,-16l17,0a8,8 0 0 1 0,16z"/>
  <path id="svg_5" fill="#ccc" d="m270.52018,378.16992l-124.438,0a17.01916,17.01916 0 0 1 -17,-17l0,-196.83984a17.01917,17.01917 0 0 1 17,-17l198.77369,0a17.01917,17.01917 0 0 1 17,17l0,48.7876l-2,0l0,-48.7876a15.017,15.017 0 0 0 -15,-15l-198.77368,0a15.017,15.017 0 0 0 -15,15l0,196.83984a15.017,15.017 0 0 0 15,15l124.438,0l-0.00001,2z"/>
  <path id="svg_6" fill="#ccc" d="m130.08219,260.33399l-90.70935,0a17.01917,17.01917 0 0 1 -17,-17l0,-160.0586a17.01917,17.01917 0 0 1 17,-17l161.68139,0a17.01917,17.01917 0 0 1 17,17l0,65.05469l-2,0l0,-65.05469a15.017,15.017 0 0 0 -15,-15l-161.68139,0a15.017,15.017 0 0 0 -15,15l0,160.0586a15.017,15.017 0 0 0 15,15l90.70935,0l0,2z"/>
  <path id="svg_7" fill="#e6e6e6" d="m534.96427,217.27539a14.97671,14.97671 0 0 1 6.73974,12.51l0,3.49l100.56006,0a8,8 0 0 0 0,-16l-107.2998,0z"/>
  <path id="svg_8" fill="#e6e6e6" d="m542.75925,191.27539a8.00917,8.00917 0 0 1 8,-8l34,0a8,8 0 1 1 0,16l-34,0a8.00916,8.00916 0 0 1 -8,-8z"/>
  <path id="svg_9" fill="#e6e6e6" d="m619.01475,134.27539a8.00917,8.00917 0 0 1 8,-8l132,0a8,8 0 1 1 0,16l-132,0a8.00916,8.00916 0 0 1 -8,-8z"/>
  <path id="svg_10" fill="#e6e6e6" d="m676.51475,100.27539a8.00917,8.00917 0 0 1 8,-8l17,0a8,8 0 1 1 0,16l-17,0a8.00916,8.00916 0 0 1 -8,-8z"/>
  <path id="svg_11" fill="#ccc" d="m542.70816,378.16992l124.438,0a17.01916,17.01916 0 0 0 17,-17l0,-196.83984a17.01917,17.01917 0 0 0 -17,-17l-198.77369,0a17.01917,17.01917 0 0 0 -17,17l0,48.7876l2,0l0,-48.7876a15.017,15.017 0 0 1 15,-15l198.77368,0a15.017,15.017 0 0 1 15,15l0,196.83984a15.017,15.017 0 0 1 -15,15l-124.438,0l0.00001,2z"/>
  <path id="svg_12" fill="#ccc" d="m683.14615,260.33399l90.70935,0a17.01917,17.01917 0 0 0 17,-17l0,-160.0586a17.01917,17.01917 0 0 0 -17,-17l-161.68139,0a17.01917,17.01917 0 0 0 -17,17l0,65.05469l2,0l0,-65.05469a15.017,15.017 0 0 1 15,-15l161.68139,0a15.017,15.017 0 0 1 15,15l0,160.0586a15.017,15.017 0 0 1 -15,15l-90.70935,0l0,2z"/>
  <path id="svg_13" fill="#3f3d56" d="m526.28409,212.7854l-239.75976,0a17.03389,17.03389 0 0 0 -17,17l0,237.49a17.01782,17.01782 0 0 0 17,17l239.75976,0a17.01783,17.01783 0 0 0 17,-17l0,-237.49a17.01784,17.01784 0 0 0 -17,-17zm15,254.49a15.01828,15.01828 0 0 1 -15,15l-239.75976,0a15.01828,15.01828 0 0 1 -15,-15l0,-237.49a15.02322,15.02322 0 0 1 15,-15l239.75976,0a15.01828,15.01828 0 0 1 15,15l0,237.49z"/>
  <path id="svg_14" fill="#6c63ff" d="m507.40336,305.27539l-202,0a8,8 0 1 1 0,-16l202,0a8,8 0 0 1 0,16z"/>
  <path id="svg_15" fill="#6c63ff" d="m449.90336,271.27539l-87,0a8,8 0 1 1 0,-16l87,0a8,8 0 0 1 0,16z"/>
  <path id="svg_16" fill="#6c63ff" d="m391.90336,353.27539l-87,0a8,8 0 1 1 0,-16l87,0a8,8 0 0 1 0,16z"/>
  <path id="svg_17" fill="#6c63ff" d="m391.90336,388.27539l-87,0a8,8 0 1 1 0,-16l87,0a8,8 0 0 1 0,16z"/>
  <path id="svg_18" fill="#6c63ff" d="m391.90336,423.27539l-87,0a8,8 0 1 1 0,-16l87,0a8,8 0 0 1 0,16z"/>
  <circle fill="#6c63ff" r="14.92913" cy="345.20452" cx="500.40945" data-name="Ellipse 44" id="fc69f6bd-6aec-467a-b158-496b315f473e"/>
  <path fill="#fff" d="m498.93005,350.89955a1.54842,1.54842 0 0 1 -0.93151,-0.30958l-0.01666,-0.0125l-3.50855,-2.68392a1.55917,1.55917 0 0 1 1.89726,-2.47477l2.27256,1.7427l5.37016,-7.006a1.55853,1.55853 0 0 1 2.18512,-0.28862l0.00045,0.00034l-0.03333,0.04628l0.03423,-0.04628a1.56039,1.56039 0 0 1 0.28829,2.18555l-6.31649,8.23688a1.55948,1.55948 0 0 1 -1.24016,0.608l-0.00137,0.00192z" data-name="Path 395" id="f31c0d86-d70b-4e63-97a7-2fc94b4d7c12-446"/>
  <circle fill="#6c63ff" r="14.92913" cy="380.20452" cx="500.40945" data-name="Ellipse 44" id="a6907563-545c-4a91-99f2-6d7f4e57ba01"/>
  <path fill="#fff" d="m498.93005,385.89955a1.54842,1.54842 0 0 1 -0.93151,-0.30958l-0.01666,-0.0125l-3.50855,-2.68392a1.55917,1.55917 0 0 1 1.89726,-2.47477l2.27256,1.7427l5.37016,-7.006a1.55853,1.55853 0 0 1 2.18512,-0.28862l0.00045,0.00034l-0.03333,0.04628l0.03423,-0.04628a1.56039,1.56039 0 0 1 0.28829,2.18555l-6.31649,8.23688a1.55948,1.55948 0 0 1 -1.24016,0.608l-0.00137,0.00192z" data-name="Path 395" id="f071b9ad-7606-418c-8652-2e0910ae4e99-449"/>
  <circle fill="#6c63ff" r="14.92913" cy="415.27539" cx="500.40945" data-name="Ellipse 44" id="a9a7744d-510c-41c6-a641-cf6a8a976d00"/>
  <path fill="#fff" d="m498.93005,420.97042a1.54842,1.54842 0 0 1 -0.93151,-0.30958l-0.01666,-0.0125l-3.50855,-2.68393a1.55917,1.55917 0 0 1 1.89726,-2.47476l2.27256,1.7427l5.37016,-7.006a1.55852,1.55852 0 0 1 2.18512,-0.28862l0.00045,0.00033l-0.03333,0.04628l0.03423,-0.04628a1.56039,1.56039 0 0 1 0.28829,2.18555l-6.31649,8.23689a1.55948,1.55948 0 0 1 -1.24016,0.60805l-0.00137,0.00187z" data-name="Path 395" id="ee4f98ac-d41c-4601-9f0c-7c3b6a7a76ac-450"/>
  <path stroke-width="0" id="svg_21" fill="#6c63ff" d="m406.42545,192.40918c-15.74927,-0.26855 -22.90625,-12.21777 -22.90552,-23.20654c0.001,-10.98877 7.15869,-22.93652 22.87256,-23.20264l0.03394,0c15.71582,0.26807 22.873,12.21729 22.87231,23.20606s-7.15894,22.93701 -22.87329,23.20312zm-0.01587,-44.40918c-14.352,0.251 -20.88892,11.165 -20.88965,21.20264c-0.00073,10.042 6.541,20.96142 20.90576,21.20654c14.32959,-0.24316 20.87232,-11.16162 20.87305,-21.20312c0.00049,-10.0376 -6.53711,-20.95166 -20.88916,-21.20606z"/>
  <path stroke="null" fill="#6c63ff" d="m405.27849,179.89955a2.26602,2.6394 0 0 1 -1.36321,-0.5277l-0.02438,-0.02131l-5.13455,-4.57495a2.28175,2.65772 0 0 1 2.77653,-4.21843l3.32576,2.97057l7.85891,-11.94226a2.28082,2.65663 0 0 1 3.19779,-0.49197l0.00066,0.00058l-0.04878,0.07889l0.05009,-0.07889a2.28354,2.6598 0 0 1 0.4219,3.72544l-9.2438,14.04039a2.28221,2.65825 0 0 1 -1.8149,1.03638l-0.002,0.00327z" data-name="Path 395" id="svg_41"/>
  <path stroke="null" id="svg_42" fill="#e6e6e6" d="m118.99738,188.27539l-69.56757,0a4.21622,8 0 1 1 0,-16l69.56757,0a4.21622,8 0 0 1 0,16z"/>
  <path stroke="null" id="svg_43" fill="#e6e6e6" d="m118.99738,230.27539l-69.56756,0a4.21622,8 0 1 1 0,-16l69.56756,0a4.21622,8 0 0 1 0,16z"/>
  <path stroke="null" id="svg_44" fill="#e6e6e6" d="m763.99738,191.27539l-69.56756,0a4.21622,8 0 1 1 0,-16l69.56756,0a4.21622,8 0 0 1 0,16z"/>
  <path stroke="null" id="svg_45" fill="#e6e6e6" d="m764.99738,229.27539l-69.56756,0a4.21622,8 0 1 1 0,-16l69.56756,0a4.21622,8 0 0 1 0,16z"/>
  <path stroke="null" id="svg_47" fill="#e6e6e6" d="m257.75414,275.27539l-90.08108,0a5.45946,8 0 1 1 0,-16l90.08108,0a5.45946,8 0 0 1 0,16z"/>
  <path stroke="null" id="svg_48" fill="#e6e6e6" d="m257.75414,319.27539l-90.08108,0a5.45946,8 0 1 1 0,-16l90.08108,0a5.45946,8 0 0 1 0,16z"/>
  <path stroke="null" id="svg_49" fill="#e6e6e6" d="m645.75414,277.27539l-90.08108,0a5.45946,8 0 1 1 0,-16l90.08108,0a5.45946,8 0 0 1 0,16z"/>
  <path stroke="null" id="svg_50" fill="#e6e6e6" d="m646.75414,321.27539l-90.08108,0a5.45946,8 0 1 1 0,-16l90.08108,0a5.45946,8 0 0 1 0,16z"/>
 </g>
</svg>