<?xml version="1.0" encoding="utf-8"?>
<svg id="f26437e7-89a7-4b5d-86a1-b6b68813c70b" data-name="Layer 1" width="769.41145" height="524.37473" viewBox="-14.38 -12.462 646.705 408.379" xmlns="http://www.w3.org/2000/svg">
  <circle cx="174.75708" cy="6.81334" r="6.81335" fill="#e6e6e6"/>
  <circle cx="209.24609" cy="6.81334" r="6.81335" fill="#e6e6e6"/>
  <circle cx="243.73517" cy="6.81334" r="6.81335" fill="#e6e6e6"/>
  <circle cx="278.22418" cy="6.81334" r="6.81335" fill="#e6e6e6"/>
  <circle cx="312.71326" cy="6.81334" r="6.81335" fill="#e6e6e6"/>
  <circle cx="174.75708" cy="41.73529" r="6.81335" fill="#e6e6e6"/>
  <circle cx="209.24609" cy="41.73529" r="6.81335" fill="#e6e6e6"/>
  <circle cx="243.73517" cy="41.73529" r="6.81335" fill="#e6e6e6"/>
  <circle cx="278.22418" cy="41.73529" r="6.81335" fill="#6c63ff"/>
  <circle cx="312.71326" cy="41.73529" r="6.81335" fill="#e6e6e6"/>
  <circle cx="381.69135" cy="41.73529" r="6.81335" fill="#e6e6e6"/>
  <circle cx="174.75708" cy="76.65724" r="6.81335" style="fill: rgb(248, 109, 112);"/>
  <circle cx="209.24609" cy="76.65724" r="6.81335" fill="#e6e6e6"/>
  <circle cx="243.73517" cy="76.65724" r="6.81335" fill="#e6e6e6"/>
  <circle cx="278.22418" cy="76.65724" r="6.81335" fill="#e6e6e6"/>
  <circle cx="312.71326" cy="76.65724" r="6.81335" fill="#e6e6e6"/>
  <circle cx="174.75708" cy="111.57918" r="6.81335" fill="#e6e6e6"/>
  <circle cx="209.24609" cy="111.57918" r="6.81335" fill="#e6e6e6"/>
  <circle cx="243.73517" cy="111.57918" r="6.81335" fill="#e6e6e6"/>
  <circle cx="278.22418" cy="111.57918" r="6.81335" fill="#e6e6e6"/>
  <circle cx="312.71326" cy="111.57918" r="6.81335" fill="#e6e6e6"/>
  <circle cx="347.20227" cy="111.57918" r="6.81335" fill="#e6e6e6"/>
  <circle cx="381.69135" cy="111.57918" r="6.81335" fill="#e6e6e6"/>
  <circle cx="416.18036" cy="111.57918" r="6.81335" fill="#e6e6e6"/>
  <circle cx="450.66943" cy="111.57918" r="6.81335" fill="#e6e6e6"/>
  <circle cx="485.15845" cy="111.57918" r="6.81335" fill="#e6e6e6"/>
  <circle cx="312.71326" cy="146.50113" r="6.81335" fill="#e6e6e6"/>
  <circle cx="347.20227" cy="146.50113" r="6.81335" fill="#6c63ff"/>
  <circle cx="381.69135" cy="146.50113" r="6.81335" fill="#e6e6e6"/>
  <circle cx="416.18036" cy="146.50113" r="6.81335" fill="#e6e6e6"/>
  <circle cx="450.66943" cy="146.50113" r="6.81335" fill="#e6e6e6"/>
  <circle cx="485.15845" cy="146.50113" r="6.81335" fill="#e6e6e6"/>
  <circle cx="312.71326" cy="181.42308" r="6.81335" style="fill: rgb(248, 109, 112);"/>
  <circle cx="347.20227" cy="181.42308" r="6.81335" fill="#e6e6e6"/>
  <circle cx="381.69135" cy="181.42308" r="6.81335" fill="#e6e6e6"/>
  <circle cx="416.18036" cy="181.42308" r="6.81335" fill="#e6e6e6"/>
  <circle cx="450.66943" cy="181.42308" r="6.81335" fill="#6c63ff"/>
  <circle cx="485.15845" cy="181.42308" r="6.81335" fill="#e6e6e6"/>
  <circle cx="312.71326" cy="216.34503" r="6.81335" fill="#e6e6e6"/>
  <circle cx="347.20227" cy="216.34503" r="6.81335" fill="#e6e6e6"/>
  <circle cx="381.69135" cy="216.34503" r="6.81335" fill="#e6e6e6"/>
  <circle cx="416.18036" cy="216.34503" r="6.81335" fill="#e6e6e6"/>
  <circle cx="450.66943" cy="216.34503" r="6.81335" fill="#e6e6e6"/>
  <circle cx="485.15845" cy="216.34503" r="6.81335" fill="#e6e6e6"/>
  <circle cx="174.75708" cy="251.26698" r="6.81335" style="fill: rgb(248, 109, 112);"/>
  <circle cx="209.24609" cy="251.26698" r="6.81335" fill="#e6e6e6"/>
  <circle cx="243.73517" cy="251.26698" r="6.81335" fill="#e6e6e6"/>
  <circle cx="278.22418" cy="251.26698" r="6.81335" fill="#e6e6e6"/>
  <circle cx="312.71326" cy="251.26698" r="6.81335" fill="#e6e6e6"/>
  <circle cx="347.20227" cy="251.26698" r="6.81335" fill="#e6e6e6"/>
  <circle cx="381.69135" cy="251.26698" r="6.81335" fill="#e6e6e6"/>
  <circle cx="416.18036" cy="251.26698" r="6.81335" fill="#e6e6e6"/>
  <circle cx="450.66943" cy="251.26698" r="6.81335" fill="#e6e6e6"/>
  <circle cx="485.15845" cy="251.26698" r="6.81335" fill="#e6e6e6"/>
  <circle cx="174.75314" cy="286.18785" r="6.81334" fill="#e6e6e6"/>
  <circle cx="209.24609" cy="286.18893" r="6.81335" fill="#e6e6e6"/>
  <circle cx="174.75308" cy="321.1096" r="6.81334" fill="#e6e6e6"/>
  <circle cx="209.24609" cy="321.11087" r="6.81335" fill="#e6e6e6"/>
  <circle cx="278.22418" cy="321.11087" r="6.81335" fill="#e6e6e6"/>
  <path d="M837.29482,268.19654H567.29428a5.00586,5.00586,0,0,1-5-5V196.221a5.00587,5.00587,0,0,1,5-5H837.29482a5.00587,5.00587,0,0,1,5,5v66.97557A5.00586,5.00586,0,0,1,837.29482,268.19654ZM567.29428,193.221a3.00328,3.00328,0,0,0-3,3v66.97557a3.00328,3.00328,0,0,0,3,3H837.29482a3.00328,3.00328,0,0,0,3-3V196.221a3.00328,3.00328,0,0,0-3-3Z" transform="translate(-215.29428 -187.81263)" fill="#e6e6e6"/>
  <circle cx="387" cy="41.89587" r="21" fill="#6c63ff"/>
  <path d="M650.79428,215.70849a3.5,3.5,0,1,0,0,7h93a3.5,3.5,0,1,0,0-7Z" transform="translate(-215.29428 -187.81263)" fill="#e6e6e6"/>
  <path d="M650.79428,236.70849a3.5,3.5,0,1,0,0,7H815.79434a3.5,3.5,0,1,0,0-7Z" transform="translate(-215.29428 -187.81263)" fill="#e6e6e6"/>
  <path d="M490.29476,404.19654H220.29428a5.00587,5.00587,0,0,1-5-5V332.221a5.00587,5.00587,0,0,1,5-5H490.29476a5.00588,5.00588,0,0,1,5,5v66.97558A5.00587,5.00587,0,0,1,490.29476,404.19654ZM220.29428,329.221a3.00328,3.00328,0,0,0-3,3v66.97558a3.00328,3.00328,0,0,0,3,3H490.29476a3.00328,3.00328,0,0,0,3-3V332.221a3.00328,3.00328,0,0,0-3-3Z" transform="translate(-215.29428 -187.81263)" fill="#e6e6e6"/>
  <circle cx="40" cy="177.89587" r="21" fill="#6c63ff"/>
  <path d="M303.79428,351.70851a3.5,3.5,0,0,0,0,7h97a3.5,3.5,0,0,0,0-7Z" transform="translate(-215.29428 -187.81263)" fill="#e6e6e6"/>
  <path d="M303.79428,372.70851a3.5,3.5,0,0,0,0,7h165a3.5,3.5,0,0,0,0-7Z" transform="translate(-215.29428 -187.81263)" fill="#e6e6e6"/>
  <path d="M734.29476,551.19654H464.29428a5.00587,5.00587,0,0,1-5-5V479.221a5.00587,5.00587,0,0,1,5-5H734.29476a5.00588,5.00588,0,0,1,5,5v66.97558A5.00587,5.00587,0,0,1,734.29476,551.19654ZM464.29428,476.221a3.00328,3.00328,0,0,0-3,3v66.97558a3.00328,3.00328,0,0,0,3,3H734.29476a3.00328,3.00328,0,0,0,3-3V479.221a3.00328,3.00328,0,0,0-3-3Z" transform="translate(-215.29428 -187.81263)" fill="#3f3d56"/>
  <circle cx="284" cy="324.89587" r="21" style="fill: rgb(248, 109, 112);"/>
  <path d="M547.79428,498.70851a3.5,3.5,0,0,0,0,7h89a3.5,3.5,0,0,0,0-7Z" transform="translate(-215.29428 -187.81263)" fill="#e6e6e6"/>
  <path d="M547.79428,519.70851a3.5,3.5,0,0,0,0,7h165a3.5,3.5,0,0,0,0-7Z" transform="translate(-215.29428 -187.81263)" fill="#e6e6e6"/>
</svg>